<?xml version="1.0" encoding="UTF-8" standalone="no"?>
<!DOCTYPE svg PUBLIC "-//W3C//DTD SVG 1.1//EN" "http://www.w3.org/Graphics/SVG/1.1/DTD/svg11.dtd">
<svg width="100%" height="100%" viewBox="0 0 161 135" version="1.1" xmlns="http://www.w3.org/2000/svg" xmlns:xlink="http://www.w3.org/1999/xlink" xml:space="preserve" xmlns:serif="http://www.serif.com/" style="fill-rule:evenodd;clip-rule:evenodd;stroke-linejoin:round;stroke-miterlimit:2;">
    <g transform="matrix(0.394729,0,0,0.394729,-62.0542,-182.292)">
        <path d="M323.515,461.815C271.63,461.815 230.93,477.727 201.452,509.938C171.91,542.148 157.207,592.395 157.207,660.85L157.207,803.034L328.241,803.034L328.241,649.455L245.694,649.455C245.694,611.846 251.835,583.883 263.878,565.575C275.917,547.267 295.773,538.059 323.515,538.059L323.515,461.815ZM558.064,461.815C532.123,461.815 509.023,465.632 488.73,473.452C468.436,481.272 451.002,493.252 436.727,509.574C422.454,525.958 411.513,546.74 403.88,571.999C396.308,597.321 392.485,626.84 392.485,660.85L392.485,803.034L564.126,803.034L564.126,649.455L481.699,649.455C481.699,611.846 487.72,583.883 499.761,565.575C511.8,547.267 531.254,538.059 558.064,538.059L558.064,461.815Z" style="fill:white;fill-opacity:0.12;fill-rule:nonzero;"/>
    </g>
</svg>
